{
    "asset" : {
        "generator" : "Khronos glTF Blender I/O v3.2.43",
        "version" : "2.0"
    },
    "scene" : 0,
    "scenes" : [
        {
            "name" : "Scene",
            "nodes" : [
                5
            ]
        }
    ],
    "nodes" : [
        {
            "name" : "Bone.001",
            "rotation" : [
                0.00992667954415083,
                3.483287613903485e-08,
                -8.39366549598708e-08,
                0.9999508261680603
            ],
            "scale" : [
                1,
                0.9999998211860657,
                1
            ],
            "translation" : [
                -1.0269562977782698e-14,
                0.4430423676967621,
                -6.912576590236037e-15
            ]
        },
        {
            "children" : [
                0
            ],
            "name" : "Bone",
            "rotation" : [
                -0.009926670230925083,
                4.6998199110248606e-08,
                4.6998202662962285e-08,
                0.9999508261680603
            ]
        },
        {
            "name" : "Bone.003",
            "rotation" : [
                8.122309366215741e-30,
                0,
                0,
                1
            ],
            "translation" : [
                0,
                0.5218631625175476,
                0
            ]
        },
        {
            "children" : [
                2
            ],
            "name" : "Bone.002",
            "rotation" : [
                1,
                -3.774895063202166e-08,
                -3.774895063202166e-08,
                0
            ]
        },
        {
            "mesh" : 0,
            "name" : "\u30d9\u30b8\u30a8\u30ab\u30fc\u30d6.009",
            "skin" : 0
        },
        {
            "children" : [
                4,
                1,
                3
            ],
            "name" : "\u30a2\u30fc\u30de\u30c1\u30e5\u30a2",
            "rotation" : [
                0,
                0,
                -0.7071067094802856,
                0.7071068286895752
            ]
        }
    ],
    "animations" : [
        {
            "channels" : [
                {
                    "sampler" : 0,
                    "target" : {
                        "node" : 1,
                        "path" : "translation"
                    }
                },
                {
                    "sampler" : 1,
                    "target" : {
                        "node" : 1,
                        "path" : "rotation"
                    }
                },
                {
                    "sampler" : 2,
                    "target" : {
                        "node" : 1,
                        "path" : "scale"
                    }
                },
                {
                    "sampler" : 3,
                    "target" : {
                        "node" : 0,
                        "path" : "translation"
                    }
                },
                {
                    "sampler" : 4,
                    "target" : {
                        "node" : 0,
                        "path" : "rotation"
                    }
                },
                {
                    "sampler" : 5,
                    "target" : {
                        "node" : 0,
                        "path" : "scale"
                    }
                },
                {
                    "sampler" : 6,
                    "target" : {
                        "node" : 3,
                        "path" : "translation"
                    }
                },
                {
                    "sampler" : 7,
                    "target" : {
                        "node" : 3,
                        "path" : "rotation"
                    }
                },
                {
                    "sampler" : 8,
                    "target" : {
                        "node" : 3,
                        "path" : "scale"
                    }
                },
                {
                    "sampler" : 9,
                    "target" : {
                        "node" : 2,
                        "path" : "translation"
                    }
                },
                {
                    "sampler" : 10,
                    "target" : {
                        "node" : 2,
                        "path" : "rotation"
                    }
                },
                {
                    "sampler" : 11,
                    "target" : {
                        "node" : 2,
                        "path" : "scale"
                    }
                }
            ],
            "name" : "nodle_Action",
            "samplers" : [
                {
                    "input" : 7,
                    "interpolation" : "LINEAR",
                    "output" : 8
                },
                {
                    "input" : 7,
                    "interpolation" : "LINEAR",
                    "output" : 9
                },
                {
                    "input" : 7,
                    "interpolation" : "LINEAR",
                    "output" : 10
                },
                {
                    "input" : 7,
                    "interpolation" : "LINEAR",
                    "output" : 11
                },
                {
                    "input" : 7,
                    "interpolation" : "LINEAR",
                    "output" : 12
                },
                {
                    "input" : 7,
                    "interpolation" : "LINEAR",
                    "output" : 13
                },
                {
                    "input" : 7,
                    "interpolation" : "LINEAR",
                    "output" : 14
                },
                {
                    "input" : 7,
                    "interpolation" : "LINEAR",
                    "output" : 15
                },
                {
                    "input" : 7,
                    "interpolation" : "LINEAR",
                    "output" : 16
                },
                {
                    "input" : 7,
                    "interpolation" : "LINEAR",
                    "output" : 17
                },
                {
                    "input" : 7,
                    "interpolation" : "LINEAR",
                    "output" : 18
                },
                {
                    "input" : 7,
                    "interpolation" : "LINEAR",
                    "output" : 19
                }
            ]
        }
    ],
    "materials" : [
        {
            "doubleSided" : true,
            "name" : "\u30de\u30c6\u30ea\u30a2\u30eb.001",
            "pbrMetallicRoughness" : {
                "baseColorFactor" : [
                    0.800000011920929,
                    0.800000011920929,
                    0.800000011920929,
                    1
                ],
                "metallicFactor" : 0.2549999952316284,
                "roughnessFactor" : 0.04500000178813934
            }
        }
    ],
    "meshes" : [
        {
            "name" : "\u30d9\u30b8\u30a8\u30ab\u30fc\u30d6.024",
            "primitives" : [
                {
                    "attributes" : {
                        "POSITION" : 0,
                        "NORMAL" : 1,
                        "TEXCOORD_0" : 2,
                        "JOINTS_0" : 3,
                        "WEIGHTS_0" : 4
                    },
                    "indices" : 5,
                    "material" : 0
                }
            ]
        }
    ],
    "skins" : [
        {
            "inverseBindMatrices" : 6,
            "joints" : [
                1,
                0,
                3,
                2
            ],
            "name" : "\u30a2\u30fc\u30de\u30c1\u30e5\u30a2"
        }
    ],
    "accessors" : [
        {
            "bufferView" : 0,
            "componentType" : 5126,
            "count" : 3815,
            "max" : [
                2.6774892807006836,
                0.4564072787761688,
                1.0816012620925903
            ],
            "min" : [
                -3.1906118392944336,
                -0.4816330373287201,
                -0.9021000266075134
            ],
            "type" : "VEC3"
        },
        {
            "bufferView" : 1,
            "componentType" : 5126,
            "count" : 3815,
            "type" : "VEC3"
        },
        {
            "bufferView" : 2,
            "componentType" : 5126,
            "count" : 3815,
            "type" : "VEC2"
        },
        {
            "bufferView" : 3,
            "componentType" : 5121,
            "count" : 3815,
            "type" : "VEC4"
        },
        {
            "bufferView" : 4,
            "componentType" : 5126,
            "count" : 3815,
            "type" : "VEC4"
        },
        {
            "bufferView" : 5,
            "componentType" : 5123,
            "count" : 19662,
            "type" : "SCALAR"
        },
        {
            "bufferView" : 6,
            "componentType" : 5126,
            "count" : 4,
            "type" : "MAT4"
        },
        {
            "bufferView" : 7,
            "componentType" : 5126,
            "count" : 40,
            "max" : [
                1.6666666666666667
            ],
            "min" : [
                0.041666666666666664
            ],
            "type" : "SCALAR"
        },
        {
            "bufferView" : 8,
            "componentType" : 5126,
            "count" : 40,
            "type" : "VEC3"
        },
        {
            "bufferView" : 9,
            "componentType" : 5126,
            "count" : 40,
            "type" : "VEC4"
        },
        {
            "bufferView" : 10,
            "componentType" : 5126,
            "count" : 40,
            "type" : "VEC3"
        },
        {
            "bufferView" : 11,
            "componentType" : 5126,
            "count" : 40,
            "type" : "VEC3"
        },
        {
            "bufferView" : 12,
            "componentType" : 5126,
            "count" : 40,
            "type" : "VEC4"
        },
        {
            "bufferView" : 13,
            "componentType" : 5126,
            "count" : 40,
            "type" : "VEC3"
        },
        {
            "bufferView" : 14,
            "componentType" : 5126,
            "count" : 40,
            "type" : "VEC3"
        },
        {
            "bufferView" : 15,
            "componentType" : 5126,
            "count" : 40,
            "type" : "VEC4"
        },
        {
            "bufferView" : 16,
            "componentType" : 5126,
            "count" : 40,
            "type" : "VEC3"
        },
        {
            "bufferView" : 17,
            "componentType" : 5126,
            "count" : 40,
            "type" : "VEC3"
        },
        {
            "bufferView" : 18,
            "componentType" : 5126,
            "count" : 40,
            "type" : "VEC4"
        },
        {
            "bufferView" : 19,
            "componentType" : 5126,
            "count" : 40,
            "type" : "VEC3"
        }
    ],
    "bufferViews" : [
        {
            "buffer" : 0,
            "byteLength" : 45780,
            "byteOffset" : 0
        },
        {
            "buffer" : 0,
            "byteLength" : 45780,
            "byteOffset" : 45780
        },
        {
            "buffer" : 0,
            "byteLength" : 30520,
            "byteOffset" : 91560
        },
        {
            "buffer" : 0,
            "byteLength" : 15260,
            "byteOffset" : 122080
        },
        {
            "buffer" : 0,
            "byteLength" : 61040,
            "byteOffset" : 137340
        },
        {
            "buffer" : 0,
            "byteLength" : 39324,
            "byteOffset" : 198380
        },
        {
            "buffer" : 0,
            "byteLength" : 256,
            "byteOffset" : 237704
        },
        {
            "buffer" : 0,
            "byteLength" : 160,
            "byteOffset" : 237960
        },
        {
            "buffer" : 0,
            "byteLength" : 480,
            "byteOffset" : 238120
        },
        {
            "buffer" : 0,
            "byteLength" : 640,
            "byteOffset" : 238600
        },
        {
            "buffer" : 0,
            "byteLength" : 480,
            "byteOffset" : 239240
        },
        {
            "buffer" : 0,
            "byteLength" : 480,
            "byteOffset" : 239720
        },
        {
            "buffer" : 0,
            "byteLength" : 640,
            "byteOffset" : 240200
        },
        {
            "buffer" : 0,
            "byteLength" : 480,
            "byteOffset" : 240840
        },
        {
            "buffer" : 0,
            "byteLength" : 480,
            "byteOffset" : 241320
        },
        {
            "buffer" : 0,
            "byteLength" : 640,
            "byteOffset" : 241800
        },
        {
            "buffer" : 0,
            "byteLength" : 480,
            "byteOffset" : 242440
        },
        {
            "buffer" : 0,
            "byteLength" : 480,
            "byteOffset" : 242920
        },
        {
            "buffer" : 0,
            "byteLength" : 640,
            "byteOffset" : 243400
        },
        {
            "buffer" : 0,
            "byteLength" : 480,
            "byteOffset" : 244040
        }
    ],
    "buffers" : [
        {
            "byteLength" : 244520,
            "uri" : "data:application/octet-stream;base64,"
        }
    ]
}
