{
    "asset" : {
        "generator" : "Khronos glTF Blender I/O v3.3.32",
        "version" : "2.0"
    },
    "scene" : 0,
    "scenes" : [
        {
            "name" : "Scene",
            "nodes" : [
                9
            ]
        }
    ],
    "nodes" : [
        {
            "name" : "Bone.006",
            "rotation" : [
                -1.0977234008720283e-21,
                2.842170943040401e-14,
                3.5527141023169746e-15,
                1
            ],
            "translation" : [
                5.131281548753294e-15,
                0.5767267942428589,
                8.359916208844946e-22
            ]
        },
        {
            "children" : [
                0
            ],
            "name" : "Bone.005",
            "rotation" : [
                6.572623304987313e-15,
                5.709891581773263e-08,
                -6.211034531133919e-08,
                1
            ],
            "scale" : [
                1,
                0.9999999403953552,
                1
            ],
            "translation" : [
                0,
                0.6077723503112793,
                -4.235164736271502e-22
            ]
        },
        {
            "children" : [
                1
            ],
            "name" : "Bone",
            "rotation" : [
                0,
                2.4361396455674367e-08,
                2.4361394679317527e-08,
                1
            ],
            "translation" : [
                -6.501023364080538e-08,
                -0.8610866069793701,
                0
            ]
        },
        {
            "name" : "Bone.003",
            "rotation" : [
                7.019480729467527e-22,
                0,
                2.0401001660350172e-23,
                1
            ],
            "translation" : [
                3.583051010839361e-15,
                0.4957304000854492,
                5.83753030895714e-22
            ]
        },
        {
            "children" : [
                3
            ],
            "name" : "Bone.002",
            "rotation" : [
                -1.8443806515604995e-22,
                1.1920928955078125e-07,
                4.439174516216732e-22,
                1
            ],
            "translation" : [
                2.231667541735538e-15,
                0.6859207153320312,
                -1.6848625004519896e-22
            ]
        },
        {
            "children" : [
                4
            ],
            "name" : "Bone.001",
            "rotation" : [
                1,
                -3.774894707930798e-08,
                -3.774894707930798e-08,
                0
            ],
            "translation" : [
                -6.501023364080538e-08,
                -0.8610866069793701,
                0
            ]
        },
        {
            "name" : "Bone.004",
            "rotation" : [
                -0.16545608639717102,
                -0.7331289649009705,
                -0.6310683488845825,
                0.19209115207195282
            ],
            "translation" : [
                -1.5824406147003174,
                -1.4449294805526733,
                -5.163879871368408
            ]
        },
        {
            "name" : "neutral_bone",
            "rotation" : [
                -0.7071068286895752,
                0,
                0,
                0.7071068286895752
            ]
        },
        {
            "mesh" : 0,
            "name" : "NOODLE",
            "skin" : 0
        },
        {
            "children" : [
                8,
                2,
                5,
                6,
                7
            ],
            "name" : "noodle_armature",
            "rotation" : [
                0,
                0,
                -0.7071067094802856,
                0.7071068286895752
            ],
            "translation" : [
                -1.0455760955810547,
                0,
                0
            ]
        }
    ],
    "animations" : [
        {
            "channels" : [
                {
                    "sampler" : 0,
                    "target" : {
                        "node" : 2,
                        "path" : "translation"
                    }
                },
                {
                    "sampler" : 1,
                    "target" : {
                        "node" : 2,
                        "path" : "rotation"
                    }
                },
                {
                    "sampler" : 2,
                    "target" : {
                        "node" : 2,
                        "path" : "scale"
                    }
                },
                {
                    "sampler" : 3,
                    "target" : {
                        "node" : 1,
                        "path" : "translation"
                    }
                },
                {
                    "sampler" : 4,
                    "target" : {
                        "node" : 1,
                        "path" : "rotation"
                    }
                },
                {
                    "sampler" : 5,
                    "target" : {
                        "node" : 1,
                        "path" : "scale"
                    }
                },
                {
                    "sampler" : 6,
                    "target" : {
                        "node" : 0,
                        "path" : "translation"
                    }
                },
                {
                    "sampler" : 7,
                    "target" : {
                        "node" : 0,
                        "path" : "rotation"
                    }
                },
                {
                    "sampler" : 8,
                    "target" : {
                        "node" : 0,
                        "path" : "scale"
                    }
                },
                {
                    "sampler" : 9,
                    "target" : {
                        "node" : 5,
                        "path" : "translation"
                    }
                },
                {
                    "sampler" : 10,
                    "target" : {
                        "node" : 5,
                        "path" : "rotation"
                    }
                },
                {
                    "sampler" : 11,
                    "target" : {
                        "node" : 5,
                        "path" : "scale"
                    }
                },
                {
                    "sampler" : 12,
                    "target" : {
                        "node" : 4,
                        "path" : "translation"
                    }
                },
                {
                    "sampler" : 13,
                    "target" : {
                        "node" : 4,
                        "path" : "rotation"
                    }
                },
                {
                    "sampler" : 14,
                    "target" : {
                        "node" : 4,
                        "path" : "scale"
                    }
                },
                {
                    "sampler" : 15,
                    "target" : {
                        "node" : 3,
                        "path" : "translation"
                    }
                },
                {
                    "sampler" : 16,
                    "target" : {
                        "node" : 3,
                        "path" : "rotation"
                    }
                },
                {
                    "sampler" : 17,
                    "target" : {
                        "node" : 3,
                        "path" : "scale"
                    }
                },
                {
                    "sampler" : 18,
                    "target" : {
                        "node" : 6,
                        "path" : "translation"
                    }
                },
                {
                    "sampler" : 19,
                    "target" : {
                        "node" : 6,
                        "path" : "rotation"
                    }
                },
                {
                    "sampler" : 20,
                    "target" : {
                        "node" : 6,
                        "path" : "scale"
                    }
                }
            ],
            "name" : "noodle_animation",
            "samplers" : [
                {
                    "input" : 13,
                    "interpolation" : "LINEAR",
                    "output" : 14
                },
                {
                    "input" : 13,
                    "interpolation" : "LINEAR",
                    "output" : 15
                },
                {
                    "input" : 13,
                    "interpolation" : "LINEAR",
                    "output" : 16
                },
                {
                    "input" : 13,
                    "interpolation" : "LINEAR",
                    "output" : 17
                },
                {
                    "input" : 13,
                    "interpolation" : "LINEAR",
                    "output" : 18
                },
                {
                    "input" : 13,
                    "interpolation" : "LINEAR",
                    "output" : 19
                },
                {
                    "input" : 13,
                    "interpolation" : "LINEAR",
                    "output" : 20
                },
                {
                    "input" : 13,
                    "interpolation" : "LINEAR",
                    "output" : 21
                },
                {
                    "input" : 13,
                    "interpolation" : "LINEAR",
                    "output" : 22
                },
                {
                    "input" : 13,
                    "interpolation" : "LINEAR",
                    "output" : 23
                },
                {
                    "input" : 13,
                    "interpolation" : "LINEAR",
                    "output" : 24
                },
                {
                    "input" : 13,
                    "interpolation" : "LINEAR",
                    "output" : 25
                },
                {
                    "input" : 13,
                    "interpolation" : "LINEAR",
                    "output" : 26
                },
                {
                    "input" : 13,
                    "interpolation" : "LINEAR",
                    "output" : 27
                },
                {
                    "input" : 13,
                    "interpolation" : "LINEAR",
                    "output" : 28
                },
                {
                    "input" : 13,
                    "interpolation" : "LINEAR",
                    "output" : 29
                },
                {
                    "input" : 13,
                    "interpolation" : "LINEAR",
                    "output" : 30
                },
                {
                    "input" : 13,
                    "interpolation" : "LINEAR",
                    "output" : 31
                },
                {
                    "input" : 13,
                    "interpolation" : "LINEAR",
                    "output" : 32
                },
                {
                    "input" : 13,
                    "interpolation" : "LINEAR",
                    "output" : 33
                },
                {
                    "input" : 13,
                    "interpolation" : "LINEAR",
                    "output" : 34
                }
            ]
        }
    ],
    "materials" : [
        {
            "doubleSided" : true,
            "name" : "\u30de\u30c6\u30ea\u30a2\u30eb",
            "pbrMetallicRoughness" : {
                "baseColorFactor" : [
                    0.8631572723388672,
                    0.12213847041130066,
                    0.20507875084877014,
                    1
                ],
                "metallicFactor" : 0,
                "roughnessFactor" : 0.5
            }
        },
        {
            "doubleSided" : true,
            "name" : "\u30de\u30c6\u30ea\u30a2\u30eb.001",
            "pbrMetallicRoughness" : {
                "baseColorFactor" : [
                    0.11193221807479858,
                    0.14126315712928772,
                    0.19120170176029205,
                    1
                ],
                "metallicFactor" : 0,
                "roughnessFactor" : 0.5
            }
        }
    ],
    "meshes" : [
        {
            "name" : "\u30d9\u30b8\u30a8\u30ab\u30fc\u30d6.018",
            "primitives" : [
                {
                    "attributes" : {
                        "POSITION" : 0,
                        "NORMAL" : 1,
                        "TEXCOORD_0" : 2,
                        "JOINTS_0" : 3,
                        "WEIGHTS_0" : 4
                    },
                    "indices" : 5,
                    "material" : 0
                },
                {
                    "attributes" : {
                        "POSITION" : 6,
                        "NORMAL" : 7,
                        "TEXCOORD_0" : 8,
                        "JOINTS_0" : 9,
                        "WEIGHTS_0" : 10
                    },
                    "indices" : 11,
                    "material" : 1
                }
            ]
        }
    ],
    "skins" : [
        {
            "inverseBindMatrices" : 12,
            "joints" : [
                2,
                1,
                0,
                5,
                4,
                3,
                6,
                7
            ],
            "name" : "noodle_armature"
        }
    ],
    "accessors" : [
        {
            "bufferView" : 0,
            "componentType" : 5126,
            "count" : 1890,
            "max" : [
                0.07998945564031601,
                0.14792843163013458,
                0.24013745784759521
            ],
            "min" : [
                -4.126964092254639,
                -0.1560424566268921,
                -0.39495816826820374
            ],
            "type" : "VEC3"
        },
        {
            "bufferView" : 1,
            "componentType" : 5126,
            "count" : 1890,
            "type" : "VEC3"
        },
        {
            "bufferView" : 2,
            "componentType" : 5126,
            "count" : 1890,
            "type" : "VEC2"
        },
        {
            "bufferView" : 3,
            "componentType" : 5121,
            "count" : 1890,
            "type" : "VEC4"
        },
        {
            "bufferView" : 4,
            "componentType" : 5126,
            "count" : 1890,
            "type" : "VEC4"
        },
        {
            "bufferView" : 5,
            "componentType" : 5123,
            "count" : 8808,
            "type" : "SCALAR"
        },
        {
            "bufferView" : 6,
            "componentType" : 5126,
            "count" : 164,
            "max" : [
                -1.9457919597625732,
                2.391744375228882,
                -2.051626205444336
            ],
            "min" : [
                -3.3103203773498535,
                0.02336430922150612,
                -7.245725154876709
            ],
            "type" : "VEC3"
        },
        {
            "bufferView" : 7,
            "componentType" : 5126,
            "count" : 164,
            "type" : "VEC3"
        },
        {
            "bufferView" : 8,
            "componentType" : 5126,
            "count" : 164,
            "type" : "VEC2"
        },
        {
            "bufferView" : 9,
            "componentType" : 5121,
            "count" : 164,
            "type" : "VEC4"
        },
        {
            "bufferView" : 10,
            "componentType" : 5126,
            "count" : 164,
            "type" : "VEC4"
        },
        {
            "bufferView" : 11,
            "componentType" : 5123,
            "count" : 552,
            "type" : "SCALAR"
        },
        {
            "bufferView" : 12,
            "componentType" : 5126,
            "count" : 8,
            "type" : "MAT4"
        },
        {
            "bufferView" : 13,
            "componentType" : 5126,
            "count" : 20,
            "max" : [
                0.8333333333333334
            ],
            "min" : [
                0.041666666666666664
            ],
            "type" : "SCALAR"
        },
        {
            "bufferView" : 14,
            "componentType" : 5126,
            "count" : 20,
            "type" : "VEC3"
        },
        {
            "bufferView" : 15,
            "componentType" : 5126,
            "count" : 20,
            "type" : "VEC4"
        },
        {
            "bufferView" : 16,
            "componentType" : 5126,
            "count" : 20,
            "type" : "VEC3"
        },
        {
            "bufferView" : 17,
            "componentType" : 5126,
            "count" : 20,
            "type" : "VEC3"
        },
        {
            "bufferView" : 18,
            "componentType" : 5126,
            "count" : 20,
            "type" : "VEC4"
        },
        {
            "bufferView" : 19,
            "componentType" : 5126,
            "count" : 20,
            "type" : "VEC3"
        },
        {
            "bufferView" : 20,
            "componentType" : 5126,
            "count" : 20,
            "type" : "VEC3"
        },
        {
            "bufferView" : 21,
            "componentType" : 5126,
            "count" : 20,
            "type" : "VEC4"
        },
        {
            "bufferView" : 22,
            "componentType" : 5126,
            "count" : 20,
            "type" : "VEC3"
        },
        {
            "bufferView" : 23,
            "componentType" : 5126,
            "count" : 20,
            "type" : "VEC3"
        },
        {
            "bufferView" : 24,
            "componentType" : 5126,
            "count" : 20,
            "type" : "VEC4"
        },
        {
            "bufferView" : 25,
            "componentType" : 5126,
            "count" : 20,
            "type" : "VEC3"
        },
        {
            "bufferView" : 26,
            "componentType" : 5126,
            "count" : 20,
            "type" : "VEC3"
        },
        {
            "bufferView" : 27,
            "componentType" : 5126,
            "count" : 20,
            "type" : "VEC4"
        },
        {
            "bufferView" : 28,
            "componentType" : 5126,
            "count" : 20,
            "type" : "VEC3"
        },
        {
            "bufferView" : 29,
            "componentType" : 5126,
            "count" : 20,
            "type" : "VEC3"
        },
        {
            "bufferView" : 30,
            "componentType" : 5126,
            "count" : 20,
            "type" : "VEC4"
        },
        {
            "bufferView" : 31,
            "componentType" : 5126,
            "count" : 20,
            "type" : "VEC3"
        },
        {
            "bufferView" : 32,
            "componentType" : 5126,
            "count" : 20,
            "type" : "VEC3"
        },
        {
            "bufferView" : 33,
            "componentType" : 5126,
            "count" : 20,
            "type" : "VEC4"
        },
        {
            "bufferView" : 34,
            "componentType" : 5126,
            "count" : 20,
            "type" : "VEC3"
        }
    ],
    "bufferViews" : [
        {
            "buffer" : 0,
            "byteLength" : 22680,
            "byteOffset" : 0,
            "target" : 34962
        },
        {
            "buffer" : 0,
            "byteLength" : 22680,
            "byteOffset" : 22680,
            "target" : 34962
        },
        {
            "buffer" : 0,
            "byteLength" : 15120,
            "byteOffset" : 45360,
            "target" : 34962
        },
        {
            "buffer" : 0,
            "byteLength" : 7560,
            "byteOffset" : 60480,
            "target" : 34962
        },
        {
            "buffer" : 0,
            "byteLength" : 30240,
            "byteOffset" : 68040,
            "target" : 34962
        },
        {
            "buffer" : 0,
            "byteLength" : 17616,
            "byteOffset" : 98280,
            "target" : 34963
        },
        {
            "buffer" : 0,
            "byteLength" : 1968,
            "byteOffset" : 115896,
            "target" : 34962
        },
        {
            "buffer" : 0,
            "byteLength" : 1968,
            "byteOffset" : 117864,
            "target" : 34962
        },
        {
            "buffer" : 0,
            "byteLength" : 1312,
            "byteOffset" : 119832,
            "target" : 34962
        },
        {
            "buffer" : 0,
            "byteLength" : 656,
            "byteOffset" : 121144,
            "target" : 34962
        },
        {
            "buffer" : 0,
            "byteLength" : 2624,
            "byteOffset" : 121800,
            "target" : 34962
        },
        {
            "buffer" : 0,
            "byteLength" : 1104,
            "byteOffset" : 124424,
            "target" : 34963
        },
        {
            "buffer" : 0,
            "byteLength" : 512,
            "byteOffset" : 125528
        },
        {
            "buffer" : 0,
            "byteLength" : 80,
            "byteOffset" : 126040
        },
        {
            "buffer" : 0,
            "byteLength" : 240,
            "byteOffset" : 126120
        },
        {
            "buffer" : 0,
            "byteLength" : 320,
            "byteOffset" : 126360
        },
        {
            "buffer" : 0,
            "byteLength" : 240,
            "byteOffset" : 126680
        },
        {
            "buffer" : 0,
            "byteLength" : 240,
            "byteOffset" : 126920
        },
        {
            "buffer" : 0,
            "byteLength" : 320,
            "byteOffset" : 127160
        },
        {
            "buffer" : 0,
            "byteLength" : 240,
            "byteOffset" : 127480
        },
        {
            "buffer" : 0,
            "byteLength" : 240,
            "byteOffset" : 127720
        },
        {
            "buffer" : 0,
            "byteLength" : 320,
            "byteOffset" : 127960
        },
        {
            "buffer" : 0,
            "byteLength" : 240,
            "byteOffset" : 128280
        },
        {
            "buffer" : 0,
            "byteLength" : 240,
            "byteOffset" : 128520
        },
        {
            "buffer" : 0,
            "byteLength" : 320,
            "byteOffset" : 128760
        },
        {
            "buffer" : 0,
            "byteLength" : 240,
            "byteOffset" : 129080
        },
        {
            "buffer" : 0,
            "byteLength" : 240,
            "byteOffset" : 129320
        },
        {
            "buffer" : 0,
            "byteLength" : 320,
            "byteOffset" : 129560
        },
        {
            "buffer" : 0,
            "byteLength" : 240,
            "byteOffset" : 129880
        },
        {
            "buffer" : 0,
            "byteLength" : 240,
            "byteOffset" : 130120
        },
        {
            "buffer" : 0,
            "byteLength" : 320,
            "byteOffset" : 130360
        },
        {
            "buffer" : 0,
            "byteLength" : 240,
            "byteOffset" : 130680
        },
        {
            "buffer" : 0,
            "byteLength" : 240,
            "byteOffset" : 130920
        },
        {
            "buffer" : 0,
            "byteLength" : 320,
            "byteOffset" : 131160
        },
        {
            "buffer" : 0,
            "byteLength" : 240,
            "byteOffset" : 131480
        }
    ],
    "buffers" : [
        {
            "byteLength" : 131720,
            "uri" : "data:application/octet-stream;base64,"
        }
    ]
}
