{
    "asset" : {
        "generator" : "Khronos glTF Blender I/O v3.3.32",
        "version" : "2.0"
    },
    "scene" : 0,
    "scenes" : [
        {
            "name" : "Scene",
            "nodes" : [
                8
            ]
        }
    ],
    "nodes" : [
        {
            "name" : "Bone.001",
            "rotation" : [
                1.5452776835900295e-08,
                0,
                0,
                1
            ],
            "translation" : [
                2.9802322387695312e-08,
                1.414353847503662,
                -1.1499627916577992e-09
            ]
        },
        {
            "children" : [
                0
            ],
            "name" : "Bone",
            "rotation" : [
                3.2014568773774954e-09,
                0,
                0,
                1
            ],
            "translation" : [
                2.9802322387695312e-08,
                -0.4143538475036621,
                -1.2571987895171333e-08
            ]
        },
        {
            "name" : "Bone.003",
            "rotation" : [
                1.437415758523495e-15,
                0,
                0,
                1
            ],
            "translation" : [
                0,
                1.2578425407409668,
                6.411537967210279e-15
            ]
        },
        {
            "children" : [
                2
            ],
            "name" : "Bone.002",
            "rotation" : [
                -1,
                0,
                0,
                4.0730171235736634e-08
            ],
            "scale" : [
                1,
                0.9999998807907104,
                0.9999998807907104
            ],
            "translation" : [
                2.9802322387695312e-08,
                -0.4143538475036621,
                -1.2571987895171333e-08
            ]
        },
        {
            "name" : "Bone.004",
            "rotation" : [
                -0.8612762689590454,
                0,
                0,
                0.5081371665000916
            ],
            "translation" : [
                0.4977686405181885,
                3.177849054336548,
                3.262357234954834
            ]
        },
        {
            "name" : "Bone.005",
            "rotation" : [
                -0.8612762689590454,
                0,
                0,
                0.5081371665000916
            ],
            "translation" : [
                -0.31745433807373047,
                3.177849054336548,
                3.262357234954834
            ]
        },
        {
            "name" : "neutral_bone",
            "rotation" : [
                -0.7071068286895752,
                0,
                0,
                0.7071068286895752
            ]
        },
        {
            "mesh" : 0,
            "name" : "\u30d9\u30b8\u30a8\u30ab\u30fc\u30d6.005",
            "skin" : 0
        },
        {
            "children" : [
                7,
                1,
                3,
                4,
                5,
                6
            ],
            "name" : "\u30a2\u30fc\u30de\u30c1\u30e5\u30a2",
            "rotation" : [
                -0.7071068286895752,
                0,
                0,
                0.7071068286895752
            ],
            "scale" : [
                19.772785186767578,
                19.772785186767578,
                19.772785186767578
            ],
            "translation" : [
                -5.4493560791015625,
                -2.8747377395629883,
                10.975030899047852
            ]
        }
    ],
    "animations" : [
        {
            "channels" : [
                {
                    "sampler" : 0,
                    "target" : {
                        "node" : 1,
                        "path" : "translation"
                    }
                },
                {
                    "sampler" : 1,
                    "target" : {
                        "node" : 1,
                        "path" : "rotation"
                    }
                },
                {
                    "sampler" : 2,
                    "target" : {
                        "node" : 1,
                        "path" : "scale"
                    }
                },
                {
                    "sampler" : 3,
                    "target" : {
                        "node" : 0,
                        "path" : "translation"
                    }
                },
                {
                    "sampler" : 4,
                    "target" : {
                        "node" : 0,
                        "path" : "rotation"
                    }
                },
                {
                    "sampler" : 5,
                    "target" : {
                        "node" : 0,
                        "path" : "scale"
                    }
                },
                {
                    "sampler" : 6,
                    "target" : {
                        "node" : 3,
                        "path" : "translation"
                    }
                },
                {
                    "sampler" : 7,
                    "target" : {
                        "node" : 3,
                        "path" : "rotation"
                    }
                },
                {
                    "sampler" : 8,
                    "target" : {
                        "node" : 3,
                        "path" : "scale"
                    }
                },
                {
                    "sampler" : 9,
                    "target" : {
                        "node" : 2,
                        "path" : "translation"
                    }
                },
                {
                    "sampler" : 10,
                    "target" : {
                        "node" : 2,
                        "path" : "rotation"
                    }
                },
                {
                    "sampler" : 11,
                    "target" : {
                        "node" : 2,
                        "path" : "scale"
                    }
                },
                {
                    "sampler" : 12,
                    "target" : {
                        "node" : 4,
                        "path" : "translation"
                    }
                },
                {
                    "sampler" : 13,
                    "target" : {
                        "node" : 4,
                        "path" : "rotation"
                    }
                },
                {
                    "sampler" : 14,
                    "target" : {
                        "node" : 4,
                        "path" : "scale"
                    }
                },
                {
                    "sampler" : 15,
                    "target" : {
                        "node" : 5,
                        "path" : "translation"
                    }
                },
                {
                    "sampler" : 16,
                    "target" : {
                        "node" : 5,
                        "path" : "rotation"
                    }
                },
                {
                    "sampler" : 17,
                    "target" : {
                        "node" : 5,
                        "path" : "scale"
                    }
                }
            ],
            "name" : "\u30a2\u30fc\u30de\u30c1\u30e5\u30a2Action.002",
            "samplers" : [
                {
                    "input" : 15,
                    "interpolation" : "LINEAR",
                    "output" : 16
                },
                {
                    "input" : 15,
                    "interpolation" : "LINEAR",
                    "output" : 17
                },
                {
                    "input" : 15,
                    "interpolation" : "LINEAR",
                    "output" : 18
                },
                {
                    "input" : 15,
                    "interpolation" : "LINEAR",
                    "output" : 19
                },
                {
                    "input" : 15,
                    "interpolation" : "LINEAR",
                    "output" : 20
                },
                {
                    "input" : 15,
                    "interpolation" : "LINEAR",
                    "output" : 21
                },
                {
                    "input" : 15,
                    "interpolation" : "LINEAR",
                    "output" : 22
                },
                {
                    "input" : 15,
                    "interpolation" : "LINEAR",
                    "output" : 23
                },
                {
                    "input" : 15,
                    "interpolation" : "LINEAR",
                    "output" : 24
                },
                {
                    "input" : 15,
                    "interpolation" : "LINEAR",
                    "output" : 25
                },
                {
                    "input" : 15,
                    "interpolation" : "LINEAR",
                    "output" : 26
                },
                {
                    "input" : 15,
                    "interpolation" : "LINEAR",
                    "output" : 27
                },
                {
                    "input" : 15,
                    "interpolation" : "LINEAR",
                    "output" : 28
                },
                {
                    "input" : 15,
                    "interpolation" : "LINEAR",
                    "output" : 29
                },
                {
                    "input" : 15,
                    "interpolation" : "LINEAR",
                    "output" : 30
                },
                {
                    "input" : 15,
                    "interpolation" : "LINEAR",
                    "output" : 31
                },
                {
                    "input" : 15,
                    "interpolation" : "LINEAR",
                    "output" : 32
                },
                {
                    "input" : 15,
                    "interpolation" : "LINEAR",
                    "output" : 33
                }
            ]
        }
    ],
    "materials" : [
        {
            "doubleSided" : true,
            "name" : "\u30de\u30c6\u30ea\u30a2\u30eb",
            "pbrMetallicRoughness" : {
                "baseColorFactor" : [
                    1,
                    0.03700000047683716,
                    0.04277801513671875,
                    1
                ],
                "metallicFactor" : 0,
                "roughnessFactor" : 0.5
            }
        },
        {
            "doubleSided" : true,
            "name" : "\u30de\u30c6\u30ea\u30a2\u30eb.001",
            "pbrMetallicRoughness" : {
                "baseColorFactor" : [
                    0.16264280676841736,
                    0.16264280676841736,
                    0.16264280676841736,
                    1
                ],
                "metallicFactor" : 0,
                "roughnessFactor" : 0.5
            }
        }
    ],
    "meshes" : [
        {
            "name" : "\u30d9\u30b8\u30a8\u30ab\u30fc\u30d6.005",
            "primitives" : [
                {
                    "attributes" : {
                        "POSITION" : 0,
                        "NORMAL" : 1,
                        "TEXCOORD_0" : 2,
                        "TEXCOORD_1" : 3,
                        "JOINTS_0" : 4,
                        "WEIGHTS_0" : 5
                    },
                    "indices" : 6,
                    "material" : 0
                },
                {
                    "attributes" : {
                        "POSITION" : 7,
                        "NORMAL" : 8,
                        "TEXCOORD_0" : 9,
                        "TEXCOORD_1" : 10,
                        "JOINTS_0" : 11,
                        "WEIGHTS_0" : 12
                    },
                    "indices" : 13,
                    "material" : 1
                }
            ]
        }
    ],
    "skins" : [
        {
            "inverseBindMatrices" : 14,
            "joints" : [
                1,
                0,
                3,
                2,
                4,
                5,
                6
            ],
            "name" : "\u30a2\u30fc\u30de\u30c1\u30e5\u30a2"
        }
    ],
    "accessors" : [
        {
            "bufferView" : 0,
            "componentType" : 5126,
            "count" : 4270,
            "max" : [
                12.763825416564941,
                1.650138020515442,
                82.18656158447266
            ],
            "min" : [
                -19.321170806884766,
                -16.433969497680664,
                -40.85248565673828
            ],
            "type" : "VEC3"
        },
        {
            "bufferView" : 1,
            "componentType" : 5126,
            "count" : 4270,
            "type" : "VEC3"
        },
        {
            "bufferView" : 2,
            "componentType" : 5126,
            "count" : 4270,
            "type" : "VEC2"
        },
        {
            "bufferView" : 3,
            "componentType" : 5126,
            "count" : 4270,
            "type" : "VEC2"
        },
        {
            "bufferView" : 4,
            "componentType" : 5121,
            "count" : 4270,
            "type" : "VEC4"
        },
        {
            "bufferView" : 5,
            "componentType" : 5126,
            "count" : 4270,
            "type" : "VEC4"
        },
        {
            "bufferView" : 6,
            "componentType" : 5123,
            "count" : 22080,
            "type" : "SCALAR"
        },
        {
            "bufferView" : 7,
            "componentType" : 5126,
            "count" : 260,
            "max" : [
                5.603487014770508,
                64.72715759277344,
                -19.24420738220215
            ],
            "min" : [
                -11.849919319152832,
                3.305079698562622,
                -54.02229690551758
            ],
            "type" : "VEC3"
        },
        {
            "bufferView" : 8,
            "componentType" : 5126,
            "count" : 260,
            "type" : "VEC3"
        },
        {
            "bufferView" : 9,
            "componentType" : 5126,
            "count" : 260,
            "type" : "VEC2"
        },
        {
            "bufferView" : 10,
            "componentType" : 5126,
            "count" : 260,
            "type" : "VEC2"
        },
        {
            "bufferView" : 11,
            "componentType" : 5121,
            "count" : 260,
            "type" : "VEC4"
        },
        {
            "bufferView" : 12,
            "componentType" : 5126,
            "count" : 260,
            "type" : "VEC4"
        },
        {
            "bufferView" : 13,
            "componentType" : 5123,
            "count" : 744,
            "type" : "SCALAR"
        },
        {
            "bufferView" : 14,
            "componentType" : 5126,
            "count" : 7,
            "type" : "MAT4"
        },
        {
            "bufferView" : 15,
            "componentType" : 5126,
            "count" : 40,
            "max" : [
                1.6666666666666667
            ],
            "min" : [
                0.041666666666666664
            ],
            "type" : "SCALAR"
        },
        {
            "bufferView" : 16,
            "componentType" : 5126,
            "count" : 40,
            "type" : "VEC3"
        },
        {
            "bufferView" : 17,
            "componentType" : 5126,
            "count" : 40,
            "type" : "VEC4"
        },
        {
            "bufferView" : 18,
            "componentType" : 5126,
            "count" : 40,
            "type" : "VEC3"
        },
        {
            "bufferView" : 19,
            "componentType" : 5126,
            "count" : 40,
            "type" : "VEC3"
        },
        {
            "bufferView" : 20,
            "componentType" : 5126,
            "count" : 40,
            "type" : "VEC4"
        },
        {
            "bufferView" : 21,
            "componentType" : 5126,
            "count" : 40,
            "type" : "VEC3"
        },
        {
            "bufferView" : 22,
            "componentType" : 5126,
            "count" : 40,
            "type" : "VEC3"
        },
        {
            "bufferView" : 23,
            "componentType" : 5126,
            "count" : 40,
            "type" : "VEC4"
        },
        {
            "bufferView" : 24,
            "componentType" : 5126,
            "count" : 40,
            "type" : "VEC3"
        },
        {
            "bufferView" : 25,
            "componentType" : 5126,
            "count" : 40,
            "type" : "VEC3"
        },
        {
            "bufferView" : 26,
            "componentType" : 5126,
            "count" : 40,
            "type" : "VEC4"
        },
        {
            "bufferView" : 27,
            "componentType" : 5126,
            "count" : 40,
            "type" : "VEC3"
        },
        {
            "bufferView" : 28,
            "componentType" : 5126,
            "count" : 40,
            "type" : "VEC3"
        },
        {
            "bufferView" : 29,
            "componentType" : 5126,
            "count" : 40,
            "type" : "VEC4"
        },
        {
            "bufferView" : 30,
            "componentType" : 5126,
            "count" : 40,
            "type" : "VEC3"
        },
        {
            "bufferView" : 31,
            "componentType" : 5126,
            "count" : 40,
            "type" : "VEC3"
        },
        {
            "bufferView" : 32,
            "componentType" : 5126,
            "count" : 40,
            "type" : "VEC4"
        },
        {
            "bufferView" : 33,
            "componentType" : 5126,
            "count" : 40,
            "type" : "VEC3"
        }
    ],
    "bufferViews" : [
        {
            "buffer" : 0,
            "byteLength" : 51240,
            "byteOffset" : 0,
            "target" : 34962
        },
        {
            "buffer" : 0,
            "byteLength" : 51240,
            "byteOffset" : 51240,
            "target" : 34962
        },
        {
            "buffer" : 0,
            "byteLength" : 34160,
            "byteOffset" : 102480,
            "target" : 34962
        },
        {
            "buffer" : 0,
            "byteLength" : 34160,
            "byteOffset" : 136640,
            "target" : 34962
        },
        {
            "buffer" : 0,
            "byteLength" : 17080,
            "byteOffset" : 170800,
            "target" : 34962
        },
        {
            "buffer" : 0,
            "byteLength" : 68320,
            "byteOffset" : 187880,
            "target" : 34962
        },
        {
            "buffer" : 0,
            "byteLength" : 44160,
            "byteOffset" : 256200,
            "target" : 34963
        },
        {
            "buffer" : 0,
            "byteLength" : 3120,
            "byteOffset" : 300360,
            "target" : 34962
        },
        {
            "buffer" : 0,
            "byteLength" : 3120,
            "byteOffset" : 303480,
            "target" : 34962
        },
        {
            "buffer" : 0,
            "byteLength" : 2080,
            "byteOffset" : 306600,
            "target" : 34962
        },
        {
            "buffer" : 0,
            "byteLength" : 2080,
            "byteOffset" : 308680,
            "target" : 34962
        },
        {
            "buffer" : 0,
            "byteLength" : 1040,
            "byteOffset" : 310760,
            "target" : 34962
        },
        {
            "buffer" : 0,
            "byteLength" : 4160,
            "byteOffset" : 311800,
            "target" : 34962
        },
        {
            "buffer" : 0,
            "byteLength" : 1488,
            "byteOffset" : 315960,
            "target" : 34963
        },
        {
            "buffer" : 0,
            "byteLength" : 448,
            "byteOffset" : 317448
        },
        {
            "buffer" : 0,
            "byteLength" : 160,
            "byteOffset" : 317896
        },
        {
            "buffer" : 0,
            "byteLength" : 480,
            "byteOffset" : 318056
        },
        {
            "buffer" : 0,
            "byteLength" : 640,
            "byteOffset" : 318536
        },
        {
            "buffer" : 0,
            "byteLength" : 480,
            "byteOffset" : 319176
        },
        {
            "buffer" : 0,
            "byteLength" : 480,
            "byteOffset" : 319656
        },
        {
            "buffer" : 0,
            "byteLength" : 640,
            "byteOffset" : 320136
        },
        {
            "buffer" : 0,
            "byteLength" : 480,
            "byteOffset" : 320776
        },
        {
            "buffer" : 0,
            "byteLength" : 480,
            "byteOffset" : 321256
        },
        {
            "buffer" : 0,
            "byteLength" : 640,
            "byteOffset" : 321736
        },
        {
            "buffer" : 0,
            "byteLength" : 480,
            "byteOffset" : 322376
        },
        {
            "buffer" : 0,
            "byteLength" : 480,
            "byteOffset" : 322856
        },
        {
            "buffer" : 0,
            "byteLength" : 640,
            "byteOffset" : 323336
        },
        {
            "buffer" : 0,
            "byteLength" : 480,
            "byteOffset" : 323976
        },
        {
            "buffer" : 0,
            "byteLength" : 480,
            "byteOffset" : 324456
        },
        {
            "buffer" : 0,
            "byteLength" : 640,
            "byteOffset" : 324936
        },
        {
            "buffer" : 0,
            "byteLength" : 480,
            "byteOffset" : 325576
        },
        {
            "buffer" : 0,
            "byteLength" : 480,
            "byteOffset" : 326056
        },
        {
            "buffer" : 0,
            "byteLength" : 640,
            "byteOffset" : 326536
        },
        {
            "buffer" : 0,
            "byteLength" : 480,
            "byteOffset" : 327176
        }
    ],
    "buffers" : [
        {
            "byteLength" : 327656,
            "uri" : "data:application/octet-stream;base64,"
        }
    ]
}
