{
    "asset" : {
        "generator" : "Khronos glTF Blender I/O v3.3.32",
        "version" : "2.0"
    },
    "scene" : 0,
    "scenes" : [
        {
            "name" : "Scene",
            "nodes" : [
                0,
                6
            ]
        }
    ],
    "nodes" : [
        {
            "mesh" : 0,
            "name" : "CHOPSTICK",
            "rotation" : [
                -0.5469485521316528,
                0.20002779364585876,
                -0.009287551045417786,
                0.8128653168678284
            ],
            "scale" : [
                0.07023255527019501,
                2.737473964691162,
                0.07023255527019501
            ],
            "translation" : [
                -2.301779270172119,
                1.1554783582687378,
                -1.6822936534881592
            ]
        },
        {
            "name" : "Bone.003",
            "rotation" : [
                6.393826941383328e-22,
                7.105427357601002e-15,
                7.993605777301127e-15,
                1
            ],
            "translation" : [
                -2.4262623909976355e-08,
                1.1246118545532227,
                1.582517938913952e-08
            ]
        },
        {
            "children" : [
                1
            ],
            "name" : "Bone.002",
            "rotation" : [
                7.880114597982698e-22,
                7.105427357601002e-15,
                6.217248937900877e-15,
                1
            ],
            "translation" : [
                -2.4262629239046873e-08,
                1.1272157430648804,
                1.5825172283712163e-08
            ]
        },
        {
            "children" : [
                2
            ],
            "name" : "Bone.001",
            "rotation" : [
                3.5203629494460174e-15,
                -6.529239726660307e-08,
                5.3916892284178175e-08,
                1
            ],
            "translation" : [
                5.08945632304858e-08,
                1,
                0
            ]
        },
        {
            "children" : [
                3
            ],
            "name" : "Bone",
            "translation" : [
                3.951906535348826e-08,
                2.9784656518927477e-08,
                0
            ]
        },
        {
            "mesh" : 1,
            "name" : "NOODLE",
            "skin" : 0
        },
        {
            "children" : [
                5,
                4
            ],
            "name" : "\u30a2\u30fc\u30de\u30c1\u30e5\u30a2",
            "rotation" : [
                0,
                0,
                0.7071067094802856,
                0.7071068286895752
            ],
            "scale" : [
                1,
                1.4283018112182617,
                1
            ],
            "translation" : [
                2.8919081687927246,
                0.563478946685791,
                0.2706441879272461
            ]
        }
    ],
    "animations" : [
        {
            "channels" : [
                {
                    "sampler" : 0,
                    "target" : {
                        "node" : 0,
                        "path" : "translation"
                    }
                },
                {
                    "sampler" : 1,
                    "target" : {
                        "node" : 0,
                        "path" : "rotation"
                    }
                },
                {
                    "sampler" : 2,
                    "target" : {
                        "node" : 0,
                        "path" : "scale"
                    }
                }
            ],
            "name" : "CHOPSTICK",
            "samplers" : [
                {
                    "input" : 11,
                    "interpolation" : "LINEAR",
                    "output" : 12
                },
                {
                    "input" : 11,
                    "interpolation" : "LINEAR",
                    "output" : 13
                },
                {
                    "input" : 11,
                    "interpolation" : "LINEAR",
                    "output" : 14
                }
            ]
        },
        {
            "channels" : [
                {
                    "sampler" : 0,
                    "target" : {
                        "node" : 4,
                        "path" : "translation"
                    }
                },
                {
                    "sampler" : 1,
                    "target" : {
                        "node" : 4,
                        "path" : "rotation"
                    }
                },
                {
                    "sampler" : 2,
                    "target" : {
                        "node" : 4,
                        "path" : "scale"
                    }
                },
                {
                    "sampler" : 3,
                    "target" : {
                        "node" : 3,
                        "path" : "translation"
                    }
                },
                {
                    "sampler" : 4,
                    "target" : {
                        "node" : 3,
                        "path" : "rotation"
                    }
                },
                {
                    "sampler" : 5,
                    "target" : {
                        "node" : 3,
                        "path" : "scale"
                    }
                },
                {
                    "sampler" : 6,
                    "target" : {
                        "node" : 2,
                        "path" : "translation"
                    }
                },
                {
                    "sampler" : 7,
                    "target" : {
                        "node" : 2,
                        "path" : "rotation"
                    }
                },
                {
                    "sampler" : 8,
                    "target" : {
                        "node" : 2,
                        "path" : "scale"
                    }
                },
                {
                    "sampler" : 9,
                    "target" : {
                        "node" : 1,
                        "path" : "translation"
                    }
                },
                {
                    "sampler" : 10,
                    "target" : {
                        "node" : 1,
                        "path" : "rotation"
                    }
                },
                {
                    "sampler" : 11,
                    "target" : {
                        "node" : 1,
                        "path" : "scale"
                    }
                }
            ],
            "name" : "BONEACTION",
            "samplers" : [
                {
                    "input" : 15,
                    "interpolation" : "LINEAR",
                    "output" : 16
                },
                {
                    "input" : 15,
                    "interpolation" : "LINEAR",
                    "output" : 17
                },
                {
                    "input" : 15,
                    "interpolation" : "LINEAR",
                    "output" : 18
                },
                {
                    "input" : 15,
                    "interpolation" : "LINEAR",
                    "output" : 19
                },
                {
                    "input" : 15,
                    "interpolation" : "LINEAR",
                    "output" : 20
                },
                {
                    "input" : 15,
                    "interpolation" : "LINEAR",
                    "output" : 21
                },
                {
                    "input" : 15,
                    "interpolation" : "LINEAR",
                    "output" : 22
                },
                {
                    "input" : 15,
                    "interpolation" : "LINEAR",
                    "output" : 23
                },
                {
                    "input" : 15,
                    "interpolation" : "LINEAR",
                    "output" : 24
                },
                {
                    "input" : 15,
                    "interpolation" : "LINEAR",
                    "output" : 25
                },
                {
                    "input" : 15,
                    "interpolation" : "LINEAR",
                    "output" : 26
                },
                {
                    "input" : 15,
                    "interpolation" : "LINEAR",
                    "output" : 27
                }
            ]
        }
    ],
    "meshes" : [
        {
            "name" : "\u5186\u67f1.129",
            "primitives" : [
                {
                    "attributes" : {
                        "POSITION" : 0,
                        "NORMAL" : 1,
                        "TEXCOORD_0" : 2
                    },
                    "indices" : 3
                }
            ]
        },
        {
            "name" : "\u30d9\u30b8\u30a8\u30ab\u30fc\u30d6.018",
            "primitives" : [
                {
                    "attributes" : {
                        "POSITION" : 4,
                        "NORMAL" : 5,
                        "TEXCOORD_0" : 6,
                        "JOINTS_0" : 7,
                        "WEIGHTS_0" : 8
                    },
                    "indices" : 9
                }
            ]
        }
    ],
    "skins" : [
        {
            "inverseBindMatrices" : 10,
            "joints" : [
                4,
                3,
                2,
                1
            ],
            "name" : "\u30a2\u30fc\u30de\u30c1\u30e5\u30a2"
        }
    ],
    "accessors" : [
        {
            "bufferView" : 0,
            "componentType" : 5126,
            "count" : 164,
            "max" : [
                9.066661834716797,
                1.0483806133270264,
                1.3432378768920898
            ],
            "min" : [
                -1,
                -1.0028656721115112,
                -1
            ],
            "type" : "VEC3"
        },
        {
            "bufferView" : 1,
            "componentType" : 5126,
            "count" : 164,
            "type" : "VEC3"
        },
        {
            "bufferView" : 2,
            "componentType" : 5126,
            "count" : 164,
            "type" : "VEC2"
        },
        {
            "bufferView" : 3,
            "componentType" : 5123,
            "count" : 552,
            "type" : "SCALAR"
        },
        {
            "bufferView" : 4,
            "componentType" : 5126,
            "count" : 1820,
            "max" : [
                3.006157159805298,
                0.7114081382751465,
                0.5107816457748413
            ],
            "min" : [
                -3.0026419162750244,
                0.40743720531463623,
                -0.12431395053863525
            ],
            "type" : "VEC3"
        },
        {
            "bufferView" : 5,
            "componentType" : 5126,
            "count" : 1820,
            "type" : "VEC3"
        },
        {
            "bufferView" : 6,
            "componentType" : 5126,
            "count" : 1820,
            "type" : "VEC2"
        },
        {
            "bufferView" : 7,
            "componentType" : 5121,
            "count" : 1820,
            "type" : "VEC4"
        },
        {
            "bufferView" : 8,
            "componentType" : 5126,
            "count" : 1820,
            "type" : "VEC4"
        },
        {
            "bufferView" : 9,
            "componentType" : 5123,
            "count" : 8808,
            "type" : "SCALAR"
        },
        {
            "bufferView" : 10,
            "componentType" : 5126,
            "count" : 4,
            "type" : "MAT4"
        },
        {
            "bufferView" : 11,
            "componentType" : 5126,
            "count" : 41,
            "max" : [
                1.6666666666666667
            ],
            "min" : [
                0
            ],
            "type" : "SCALAR"
        },
        {
            "bufferView" : 12,
            "componentType" : 5126,
            "count" : 41,
            "type" : "VEC3"
        },
        {
            "bufferView" : 13,
            "componentType" : 5126,
            "count" : 41,
            "type" : "VEC4"
        },
        {
            "bufferView" : 14,
            "componentType" : 5126,
            "count" : 41,
            "type" : "VEC3"
        },
        {
            "bufferView" : 15,
            "componentType" : 5126,
            "count" : 39,
            "max" : [
                1.625
            ],
            "min" : [
                0.041666666666666664
            ],
            "type" : "SCALAR"
        },
        {
            "bufferView" : 16,
            "componentType" : 5126,
            "count" : 39,
            "type" : "VEC3"
        },
        {
            "bufferView" : 17,
            "componentType" : 5126,
            "count" : 39,
            "type" : "VEC4"
        },
        {
            "bufferView" : 18,
            "componentType" : 5126,
            "count" : 39,
            "type" : "VEC3"
        },
        {
            "bufferView" : 19,
            "componentType" : 5126,
            "count" : 39,
            "type" : "VEC3"
        },
        {
            "bufferView" : 20,
            "componentType" : 5126,
            "count" : 39,
            "type" : "VEC4"
        },
        {
            "bufferView" : 21,
            "componentType" : 5126,
            "count" : 39,
            "type" : "VEC3"
        },
        {
            "bufferView" : 22,
            "componentType" : 5126,
            "count" : 39,
            "type" : "VEC3"
        },
        {
            "bufferView" : 23,
            "componentType" : 5126,
            "count" : 39,
            "type" : "VEC4"
        },
        {
            "bufferView" : 24,
            "componentType" : 5126,
            "count" : 39,
            "type" : "VEC3"
        },
        {
            "bufferView" : 25,
            "componentType" : 5126,
            "count" : 39,
            "type" : "VEC3"
        },
        {
            "bufferView" : 26,
            "componentType" : 5126,
            "count" : 39,
            "type" : "VEC4"
        },
        {
            "bufferView" : 27,
            "componentType" : 5126,
            "count" : 39,
            "type" : "VEC3"
        }
    ],
    "bufferViews" : [
        {
            "buffer" : 0,
            "byteLength" : 1968,
            "byteOffset" : 0,
            "target" : 34962
        },
        {
            "buffer" : 0,
            "byteLength" : 1968,
            "byteOffset" : 1968,
            "target" : 34962
        },
        {
            "buffer" : 0,
            "byteLength" : 1312,
            "byteOffset" : 3936,
            "target" : 34962
        },
        {
            "buffer" : 0,
            "byteLength" : 1104,
            "byteOffset" : 5248,
            "target" : 34963
        },
        {
            "buffer" : 0,
            "byteLength" : 21840,
            "byteOffset" : 6352,
            "target" : 34962
        },
        {
            "buffer" : 0,
            "byteLength" : 21840,
            "byteOffset" : 28192,
            "target" : 34962
        },
        {
            "buffer" : 0,
            "byteLength" : 14560,
            "byteOffset" : 50032,
            "target" : 34962
        },
        {
            "buffer" : 0,
            "byteLength" : 7280,
            "byteOffset" : 64592,
            "target" : 34962
        },
        {
            "buffer" : 0,
            "byteLength" : 29120,
            "byteOffset" : 71872,
            "target" : 34962
        },
        {
            "buffer" : 0,
            "byteLength" : 17616,
            "byteOffset" : 100992,
            "target" : 34963
        },
        {
            "buffer" : 0,
            "byteLength" : 256,
            "byteOffset" : 118608
        },
        {
            "buffer" : 0,
            "byteLength" : 164,
            "byteOffset" : 118864
        },
        {
            "buffer" : 0,
            "byteLength" : 492,
            "byteOffset" : 119028
        },
        {
            "buffer" : 0,
            "byteLength" : 656,
            "byteOffset" : 119520
        },
        {
            "buffer" : 0,
            "byteLength" : 492,
            "byteOffset" : 120176
        },
        {
            "buffer" : 0,
            "byteLength" : 156,
            "byteOffset" : 120668
        },
        {
            "buffer" : 0,
            "byteLength" : 468,
            "byteOffset" : 120824
        },
        {
            "buffer" : 0,
            "byteLength" : 624,
            "byteOffset" : 121292
        },
        {
            "buffer" : 0,
            "byteLength" : 468,
            "byteOffset" : 121916
        },
        {
            "buffer" : 0,
            "byteLength" : 468,
            "byteOffset" : 122384
        },
        {
            "buffer" : 0,
            "byteLength" : 624,
            "byteOffset" : 122852
        },
        {
            "buffer" : 0,
            "byteLength" : 468,
            "byteOffset" : 123476
        },
        {
            "buffer" : 0,
            "byteLength" : 468,
            "byteOffset" : 123944
        },
        {
            "buffer" : 0,
            "byteLength" : 624,
            "byteOffset" : 124412
        },
        {
            "buffer" : 0,
            "byteLength" : 468,
            "byteOffset" : 125036
        },
        {
            "buffer" : 0,
            "byteLength" : 468,
            "byteOffset" : 125504
        },
        {
            "buffer" : 0,
            "byteLength" : 624,
            "byteOffset" : 125972
        },
        {
            "buffer" : 0,
            "byteLength" : 468,
            "byteOffset" : 126596
        }
    ],
    "buffers" : [
        {
            "byteLength" : 127064,
            "uri" : "data:application/octet-stream;base64,"
        }
    ]
}
